<svg id="Layer_1" enable-background="new 0 0 480.079 480.079" height="512" viewBox="0 0 480.079 480.079" width="512" xmlns="http://www.w3.org/2000/svg"><path d="m394.108 24.439c-124.243 41.029-161.387-45.385-306.33-5.58-6.97 1.92-11.82 8.22-11.82 15.45v265.57c-6.39 2.1-11 8.11-11 15.2v141c0 8.84 7.16 16 16 16h28c8.84 0 16-7.16 16-16v-141c0-7.09-4.61-13.1-11-15.2v-62.44c127.421-24.03 166.02 54.563 290.7 7.96 6.27-2.35 10.46-8.32 10.46-15.02v-190.75c0-10.9-10.659-18.61-21.01-15.19z" fill="#cbe3fa"/><path d="m95.958 251.793v39.286c0 4.418-3.582 8-8 8-7.036 0-8.934-.215-12 .8v-52.88c3.324-1.031 6.593-1.997 9.808-2.901 5.115-1.439 10.192 2.382 10.192 7.695z" fill="#eef7ff"/><path d="m124.958 315.079v141c0 8.84-7.16 16-16 16h-28c-8.84 0-16-7.16-16-16v-141c0-7.09 4.61-13.1 11-15.2 3.302-1.094 2.521-.8 33-.8 8.787 0 16 7.119 16 16z" fill="#585966"/><path d="m114.141 299.94c7.675 2.624 5.694 14.061-2.417 14.127-2.427.02-3.86.181-5.765.812-6.39 2.1-10.999 8.11-10.999 15.2v127.996c.002 7.735-6.267 14.004-14.001 14.004-8.837 0-16-7.163-16-16v-141c0-7.09 4.61-13.1 11-15.2 3.302-1.094 2.521-.8 33-.8 1.785 0 3.504.288 5.182.861z" fill="#6e6f80"/><path d="m394.108 24.439c-124.243 41.029-161.387-45.385-306.33-5.58-6.97 1.92-11.82 8.22-11.82 15.45v212.69c158.89-49.323 192.418 49.34 328.7-1.6 6.27-2.35 10.46-8.32 10.46-15.02v-190.75c0-10.9-10.659-18.61-21.01-15.19z" fill="#ff6d7a"/><path d="m265.958 26.669v46.858c0 5.203-4.894 9.016-9.942 7.757-45.169-11.26-82.062-14.637-132.224-2.979-5.023 1.168-9.833-2.626-9.833-7.783v-57.753c66.609-12.57 108.949 2.92 151.999 13.9z" fill="#ff8c95"/><path d="m97.958 146.236v88.435c0 3.643-2.458 6.813-5.982 7.737-5.196 1.362-10.534 2.891-16.018 4.591v-105c4.048-1.255 8.016-2.417 11.907-3.487 5.083-1.398 10.093 2.453 10.093 7.724z" fill="#ff8c95"/><path d="m265.958 146.339v105c-43.06-10.98-85.4-26.46-152-13.9v-105c66.6-12.56 108.94 2.92 152 13.9z" fill="#ffe773"/><path d="m415.118 39.629v96.64c-65.37 27.07-107.6 20.67-149.16 10.07v-119.67c36.94 9.42 74.4 15.52 128.15-2.23 10.35-3.42 21.01 4.29 21.01 15.19z" fill="#ffe773"/><path d="m415.118 39.629v42.252c0 3.52-2.302 6.642-5.672 7.658-56.593 17.078-94.108 7.443-137.539-4.109-3.505-.932-5.949-4.106-5.949-7.733v-51.028c36.94 9.42 74.4 15.52 128.15-2.23 10.351-3.42 21.01 4.29 21.01 15.19z" fill="#fff0a6"/><path d="m113.958 12.769v119.67c-11.85 2.24-24.47 5.36-38 9.56v-107.69c0-7.23 4.85-13.53 11.82-15.45 9.141-2.51 17.85-4.52 26.18-6.09z" fill="#ffe773"/><path d="m113.958 12.769v62.277c0 3.258-2.045 6.116-5.074 7.316-6.369 2.523-10.926 6.692-10.926 14.948v32.362c0 3.643-2.458 6.813-5.982 7.737-5.196 1.362-10.534 2.891-16.018 4.591v-107.691c0-7.23 4.85-13.53 11.82-15.45 9.14-2.51 17.85-4.52 26.18-6.09z" fill="#fff0a6"/><g><path d="m391.604 16.838c-121.238 40.041-158.384-46.27-305.95-5.692-10.419 2.865-17.695 12.389-17.695 23.16v226.385c0 4.418 3.582 8 8 8s8-3.582 8-8v-7.747c7.465-2.188 14.823-4.091 22-5.688v43.805c-2.467-.018-18.862.017-25 .017-13.233 0-24 10.766-24 24v141c0 13.234 10.767 24 24 24h28c13.233 0 24-10.766 24-24v-119c0-4.418-3.582-8-8-8s-8 3.582-8 8v119c0 4.411-3.589 8-8 8h-28c-4.411 0-8-3.589-8-8v-141c0-4.411 3.589-8.01 8-8.01 34.448 0 27.835-.119 31.327.628 4.962 1.057 9.673-2.735 9.673-7.822v-160.7c54.998-9.037 90.044 1.255 136 13.359v58.094c0 4.418 3.582 8 8 8s8-3.582 8-8v-54.084c36.572 8.575 67.782 10.03 106.539-.065 4.275-1.114 6.839-5.482 5.726-9.758-1.115-4.276-5.487-6.839-9.759-5.725-40.995 10.677-72.132 6.45-102.506-.908v-103.218c35.008 8.209 71.6 12.027 122.663-4.839 5.175-1.707 10.499 2.141 10.499 7.595v190.757c0 3.321-2.115 6.343-5.264 7.52-105.481 39.427-147.369-14.109-242.166-13.134-4.418.045-7.964 3.663-7.919 8.081.045 4.391 3.618 7.919 7.998 7.919 94.372 0 137.123 53.451 247.688 12.122 9.368-3.501 15.662-12.547 15.662-22.507v-190.758c.001-16.361-15.975-27.922-31.516-22.787zm-285.646 214.054c-7.182 1.515-14.534 3.318-22 5.407v-88.346c7.624-2.236 14.956-4.132 22-5.696zm152-94.913c-42.598-11.39-80.136-21.574-136-12.977v-74.439c0-4.418-3.582-8-8-8s-8 3.582-8 8v77.348c-7.073 1.48-14.4 3.266-22 5.39v-96.994c0-3.591 2.441-6.771 5.938-7.732 71.367-19.625 115.672-7.748 158.521 3.739 3.19.855 6.368 1.705 9.542 2.541v103.124z"/></g></svg>