<svg height="512" viewBox="0 0 512 512" width="512" xmlns="http://www.w3.org/2000/svg"><g><g><path d="m480 312v-56a40 40 0 0 0 -40-40h-72l-24-64a35.1 35.1 0 0 0 -33.3-24h-150.7a35.1 35.1 0 0 0 -33.3 24l-30.7 64h-24a40 40 0 0 0 -40 40v56" fill="#ff9811"/><path d="m440 344h-416a8 8 0 0 1 -8-8v-16a8 8 0 0 1 8-8h440" fill="#e0e0e2"/><circle cx="104" cy="344" fill="#2d2d30" r="48"/><circle cx="408" cy="344" fill="#2d2d30" r="48"/><g fill="#e0e0e2"><path d="m456 344h32a8 8 0 0 0 8-8v-16a8 8 0 0 0 -8-8h-40l2.34 9.37"/><circle cx="104" cy="344" r="16"/><circle cx="408" cy="344" r="16"/></g><path d="m160 152h88v64h-88z" fill="#1e81ce"/><path d="m368 216h-120v-64h96z" fill="#5aaae7"/><path d="m32 256h32v24h-32z" fill="#ffda44"/><path d="m448 256h32v24h-32z" fill="#ffda44"/></g><g><path d="m104 320a24 24 0 1 0 24 24 24.028 24.028 0 0 0 -24-24zm0 32a8 8 0 1 1 8-8 8.009 8.009 0 0 1 -8 8z"/><path d="m408 320a24 24 0 1 0 24 24 24.028 24.028 0 0 0 -24-24zm0 32a8 8 0 1 1 8-8 8.009 8.009 0 0 1 -8 8z"/><path d="m488 304v-48a48.051 48.051 0 0 0 -48-48h-66.46l-22-58.68a43.052 43.052 0 0 0 -40.84-29.32h-150.7a43.044 43.044 0 0 0 -40.72 28.97l-28.32 59.03h-18.96a48.051 48.051 0 0 0 -48 48v48a16.021 16.021 0 0 0 -16 16v16a16.021 16.021 0 0 0 16 16h24.58a55.994 55.994 0 0 0 110.84 0h193.16a55.994 55.994 0 0 0 110.84 0h24.58a16.021 16.021 0 0 0 16-16v-16a16.021 16.021 0 0 0 -16-16zm-131.54-96h-100.46v-48h82.46zm-316.46 56h16v8h-16zm8.58 72h-24.58v-16h29.41a55.5 55.5 0 0 0 -4.83 16zm55.42 48a40 40 0 1 1 40-40 40.04 40.04 0 0 1 -40 40zm248.58-48h-193.16a55.5 55.5 0 0 0 -4.83-16h202.82a55.5 55.5 0 0 0 -4.83 16zm55.42 48a40 40 0 1 1 40-40 40.04 40.04 0 0 1 -40 40zm40-80a7.337 7.337 0 0 0 -.81.05 55.871 55.871 0 0 0 -78.37-.01 7.383 7.383 0 0 0 -.82-.04h-224a7.383 7.383 0 0 0 -.82.04 55.871 55.871 0 0 0 -78.37.01 7.337 7.337 0 0 0 -.81-.05h-24v-16h24a8 8 0 0 0 8-8v-24a8 8 0 0 0 -8-8h-22.99a32.058 32.058 0 0 1 30.99-24h24a8 8 0 0 0 7.21-4.54l30.71-64a7.5 7.5 0 0 0 .37-.93 27.079 27.079 0 0 1 25.71-18.53h150.7a27.027 27.027 0 0 1 19.22 8h-169.92a8 8 0 0 0 -8 8v64a8 8 0 0 0 8 8h280a32.058 32.058 0 0 1 30.99 24h-22.99a8 8 0 0 0 -8 8v24a8 8 0 0 0 8 8h24v16zm-208-144v48h-72v-48zm232 104v8h-16v-8zm16 72h-24.58a55.5 55.5 0 0 0 -4.83-16h29.41z"/><path d="m256 248h40a8 8 0 0 0 0-16h-40a8 8 0 0 0 0 16z"/></g></g></svg>